# xmcd CD database file
#
# Track frame offsets:
#	182
#	11037
#	23412
#	39290
#	50822
#	60522
#	79095
#	91715
#	103852
#	118897
#	132527
#	143392
#	155315
#	166437
#	178612
#	190242
#	201090
#	214810
#
# Disc length: 3002 seconds
#
# Revision: 0
# Processed by: cddbd v1.4PL0 Copyright (c) Steve Scherf et al.
# Submitted via: Feurio! 1.65 - http://www.feurio.com
#
DISCID=ef0bb812
DTITLE=Various Artist - The Best Of Country and Western Vol.2
DYEAR=1900
DGENRE=country
TTITLE0=Bobby Bare - Just In Case A Night Like This
TTITLE1=Merle Travis - Gambler's Guitar
TTITLE2=Blue River Connection - Me And Bobby Mc Ghee
TTITLE3=Gorge Jones - You Comb Her Hair
TTITLE4=Donna Fargo - Sticks And Stones
TTITLE5=Dave Dudley - He Doesn't Live There Anymore
TTITLE6=Johnny Cash - Folsom Prison Blues
TTITLE7=Bobby Bare - Just The Side Of Nowhere
TTITLE8=Jim Mc Lee - Rhinestone Cowboy
TTITLE9=Barbara Shelton - Coal Miners Daughter
TTITLE10=Dolly Parton - Honky Tonk Angels
TTITLE11=Don Williams - Follow Me Back To Louisville
TTITLE12=The Nashville Gamblers - Who's Gonna Be Your Man
TTITLE13=Bobby Bare - Roses Are Red, My Love
TTITLE14=The Nashville Gamblers - That Tavern In Town
TTITLE15=The Nashville Gamblers - Whoopee Ti Yi Yo
TTITLE16=Dave Dudley - I Was Country Before Barbara Mandrell
TTITLE17=Don Williams - Goin' Up Gripple Creek
EXTD=vom Steinebeisser
EXTT0=
EXTT1=
EXTT2=
EXTT3=
EXTT4=
EXTT5=
EXTT6=
EXTT7=
EXTT8=
EXTT9=
EXTT10=
EXTT11=
EXTT12=
EXTT13=
EXTT14=
EXTT15=
EXTT16=
EXTT17=
PLAYORDER=
